<svg width="145" height="28" viewBox="0 0 145 28" fill="none" xmlns="http://www.w3.org/2000/svg">
<g clip-path="url(#clip0_501_438)">
<path d="M0 0.407873H2.29418V16.619H14.3489V18.7262H0V0.407873Z" fill="black"/>
<path d="M15.6518 9.6179C15.6518 4.04432 19.6925 0 25.2069 0C30.7213 0 34.7962 4.04432 34.7962 9.6179C34.7962 15.1915 30.7208 19.2019 25.2069 19.2019C19.693 19.2019 15.6518 15.1915 15.6518 9.6179ZM32.3985 9.6179C32.3985 5.26793 29.3506 2.14108 25.2069 2.14108C21.0632 2.14108 18.0148 5.26743 18.0148 9.6179C18.0148 13.9684 21.0974 17.0608 25.2069 17.0608C29.3164 17.0608 32.3985 13.9345 32.3985 9.6179Z" fill="black"/>
<path d="M44.7276 18.7262L35.8237 0.407873H38.3239L45.4471 15.0898L52.5703 0.407873H55.1047L46.1661 18.7262H44.7276Z" fill="black"/>
<path d="M57.64 0.407873H72.1603V2.51505H59.9342V7.88469H67.3318V9.99237H59.9342V16.6195H72.9135V18.7267H57.6395V0.407873H57.64Z" fill="black"/>
<path d="M87.7438 0.407873H102.264V2.51505H90.038V7.88469H97.4356V9.99237H90.038V16.6195H103.017V18.7267H87.7433V0.407873H87.7438Z" fill="#008074"/>
<path d="M123.019 14.2401C121.306 17.4353 118.258 19.2024 114.525 19.2024C109.012 19.2024 104.97 15.192 104.97 9.61841C104.97 4.04482 109.012 0 114.525 0C117.95 0 120.861 1.56368 122.608 4.28216L120.69 5.6419C119.525 3.43251 117.196 2.14108 114.525 2.14108C110.416 2.14108 107.333 5.26743 107.333 9.6179C107.333 13.9684 110.416 17.0608 114.525 17.0608C117.402 17.0608 119.697 15.6333 121.169 12.8804L123.019 14.2396V14.2401Z" fill="#008074"/>
<path d="M125.656 9.6179C125.656 4.04432 129.697 0 135.211 0C140.725 0 144.801 4.04432 144.801 9.6179C144.801 15.1915 140.725 19.2019 135.211 19.2019C129.697 19.2019 125.656 15.1915 125.656 9.6179ZM142.403 9.6179C142.403 5.26793 139.355 2.14108 135.211 2.14108C131.068 2.14108 128.019 5.26743 128.019 9.6179C128.019 13.9684 131.102 17.0608 135.211 17.0608C139.321 17.0608 142.403 13.9345 142.403 9.6179Z" fill="#008074"/>
<path d="M138.789 6.45714H136.755L135.181 7.77184L133.607 6.45714H131.572L130.197 8.69133L131.384 11.0571L135.181 14.1085L138.978 11.0571L140.165 8.69133L138.789 6.45714Z" fill="#FF8080"/>
<path d="M87.754 22.932H90.6999C91.6973 22.932 92.1869 23.3626 92.1869 24.1601C92.1869 24.5538 92.0298 24.8747 91.734 25.0675C92.27 25.3701 92.5377 25.8194 92.5377 26.3872C92.5377 27.286 91.91 27.8725 90.857 27.8725H87.754V22.9325V22.932ZM90.7555 24.8843C91.2817 24.8843 91.5586 24.6368 91.5586 24.1966C91.5586 23.7295 91.2914 23.5002 90.7555 23.5002H88.3731V24.8843H90.7555ZM90.9768 27.3037C91.5586 27.3037 91.8916 26.9368 91.8916 26.3781C91.8916 25.8194 91.5586 25.4526 90.9768 25.4526H88.3726V27.3037H90.9768Z" fill="black"/>
<path d="M94.4877 22.9046H95.1154V27.8897H94.4877V22.9046Z" fill="black"/>
<path d="M96.9073 25.4156C96.9073 23.9122 97.997 22.8221 99.484 22.8221C100.971 22.8221 102.07 23.9127 102.07 25.4156C102.07 26.9186 100.971 28 99.484 28C97.997 28 96.9073 26.9186 96.9073 25.4156ZM101.423 25.4156C101.423 24.2426 100.602 23.399 99.484 23.399C98.3662 23.399 97.5442 24.2426 97.5442 25.4156C97.5442 26.5886 98.3754 27.4226 99.484 27.4226C100.593 27.4226 101.423 26.579 101.423 25.4156Z" fill="black"/>
<path d="M107.594 22.932H108.167L110.18 25.9561L112.202 22.932H112.766V27.872H112.156V24.0139L110.18 26.9373L108.204 24.0139V27.872H107.594V22.932Z" fill="black"/>
<path d="M116.609 22.932H117.126L119.592 27.872H118.917L118.243 26.5431H115.491L114.835 27.872H114.17L116.608 22.932H116.609ZM117.967 25.9657L116.868 23.7755L115.778 25.9657H117.967H117.967Z" fill="black"/>
<path d="M121.015 22.932H123.869C124.847 22.932 125.429 23.4451 125.429 24.3064C125.429 25.0037 124.977 25.572 124.247 25.7L125.495 27.872H124.811L123.564 25.7086H121.634V27.872H121.015V22.932H121.015ZM123.832 25.1317C124.46 25.1317 124.783 24.8478 124.783 24.3246C124.783 23.8013 124.46 23.5002 123.86 23.5002H121.634V25.1317H123.832Z" fill="black"/>
<path d="M127.25 22.9228H127.869V25.3878L130.722 22.9228H131.535L129.522 24.6824L131.84 27.8715H131.092L129.079 25.1034L127.869 26.1119V27.8715H127.251V22.9228H127.25Z" fill="black"/>
<path d="M133.356 22.932H137.272V23.5002H133.975V24.9485H135.97V25.5158H133.975V27.3032H137.475V27.8715H133.356V22.9314V22.932Z" fill="black"/>
<path d="M139.96 23.5002H137.863V22.932H142.675V23.5002H140.579V27.872H139.96V23.5002Z" fill="black"/>
</g>
<defs>
<clipPath id="clip0_501_438">
<rect width="144.8" height="28" fill="white"/>
</clipPath>
</defs>
</svg>
