<svg width="25" height="24" viewBox="0 0 25 24" fill="none" xmlns="http://www.w3.org/2000/svg">
<path d="M21.8 10C21.8 17 12.8 23 12.8 23C12.8 23 3.8 17 3.8 10C3.8 7.61305 4.74821 5.32387 6.43604 3.63604C8.12387 1.94821 10.4131 1 12.8 1C15.187 1 17.4761 1.94821 19.164 3.63604C20.8518 5.32387 21.8 7.61305 21.8 10Z" stroke="black" stroke-width="1.5" stroke-linecap="round" stroke-linejoin="round"/>
<path d="M12.8 13C14.4569 13 15.8 11.6569 15.8 10C15.8 8.34315 14.4569 7 12.8 7C11.1431 7 9.8 8.34315 9.8 10C9.8 11.6569 11.1431 13 12.8 13Z" stroke="black" stroke-width="1.5" stroke-linecap="round" stroke-linejoin="round"/>
</svg>
