<svg width="20" height="20" viewBox="0 0 20 20" fill="none" xmlns="http://www.w3.org/2000/svg">
<path d="M11.5168 6.38913C12.1597 6.50295 12.7506 6.78827 13.2138 7.20856C13.677 7.62886 13.9915 8.16501 14.1169 8.7484M11.5168 4C12.8526 4.13465 14.0982 4.67742 15.0492 5.5392C16.0002 6.40098 16.5999 7.53054 16.75 8.74242M16.0917 13.5087V15.3006C16.0925 15.4669 16.0549 15.6316 15.9815 15.784C15.908 15.9364 15.8003 16.0732 15.6652 16.1857C15.5301 16.2981 15.3706 16.3837 15.197 16.437C15.0233 16.4903 14.8393 16.5101 14.6567 16.4952C12.6311 16.2954 10.6854 15.6674 8.97584 14.6615C7.38535 13.7445 6.03689 12.5209 5.02623 11.0778C3.91374 9.51961 3.22142 7.74556 3.00534 5.89936C2.98889 5.73419 3.01053 5.56772 3.06887 5.41056C3.12721 5.25339 3.22097 5.10897 3.3442 4.98648C3.46742 4.864 3.6174 4.76614 3.7846 4.69913C3.95179 4.63212 4.13252 4.59744 4.3153 4.59728H6.29011C6.60957 4.59443 6.91927 4.69708 7.1615 4.88609C7.40372 5.0751 7.56193 5.33758 7.60664 5.62461C7.69 6.19804 7.84457 6.76107 8.06743 7.30297C8.156 7.51675 8.17517 7.74909 8.12266 7.97245C8.07016 8.19582 7.94819 8.40084 7.77121 8.56324L6.93521 9.32179C7.87229 10.8171 9.23682 12.0552 10.8848 12.9055L11.7208 12.1469C11.8998 11.9863 12.1258 11.8757 12.3719 11.828C12.6181 11.7804 12.8742 11.7978 13.1098 11.8782C13.707 12.0804 14.3275 12.2206 14.9595 12.2963C15.2793 12.3372 15.5713 12.4833 15.7801 12.7069C15.9888 12.9304 16.0997 13.2158 16.0917 13.5087Z" stroke="black" stroke-linecap="round" stroke-linejoin="round"/>
</svg>
